<?xml version="1.0" encoding="UTF-8"?>
<svg id="Layer_1" data-name="Layer 1" xmlns="http://www.w3.org/2000/svg" viewBox="0 0 1080 1080">
  <defs>
    <style>
      .cls-1 {
        fill: #fff;
      }

      .cls-2 {
        fill: #100a2f;
      }

      .cls-3 {
        fill: #bf0800;
      }
    </style>
  </defs>
  <path class="cls-2" d="m262.26,483.9c.29-.26.61-.47.96-.62.35-.16.69-.24,1.03-.24h10.59c.29,0,.58.07.86.2.28.13.53.32.75.55.22.23.37.52.47.86,0,0,0,0,0,.01.18.65.71,1.09,1.42,1.09h1.91c1.14,0,2.18-1.09,2.06-2.19-.04-.34-.1-.66-.18-.98-.26-.96-.69-1.78-1.29-2.48-.62-.72-1.4-1.28-2.33-1.68s-1.9-.55-2.94-.55h-10.42c-1.08,0-2.13.2-3.16.61s-1.96.96-2.79,1.65c-.83.7-1.54,1.53-2.13,2.48-.59.96-.98,2-1.18,3.12s-.17,2.09.05,3.03c.23.94.62,1.78,1.2,2.5.57.72,1.3,1.29,2.2,1.71.89.42,1.91.62,3.03.62h10.59c.64,0,1.19.24,1.66.72.47.48.63,1.11.49,1.89-.07.39-.22.75-.45,1.08-.23.33-.49.61-.79.85-.3.23-.61.41-.94.53-.33.12-.63.18-.9.18h-10.59c-.69,0-1.25-.27-1.7-.81-.19-.23-.33-.47-.41-.72-.24-.71-.95-1.11-1.75-1.11h-.92c-1.58,0-2.93,1.61-2.57,3.06v.03c.24.96.65,1.79,1.24,2.5.59.71,1.32,1.27,2.2,1.67s1.88.61,2.98.61h10.59c1.05,0,2.09-.2,3.1-.59,1.01-.39,1.94-.94,2.79-1.64.85-.7,1.57-1.53,2.17-2.48s1-2.01,1.2-3.16.17-2.17-.09-3.12-.68-1.78-1.27-2.48c-.59-.7-1.32-1.25-2.21-1.65-.88-.4-1.85-.61-2.91-.61h-10.59c-.71,0-1.28-.26-1.72-.77-.44-.51-.59-1.13-.47-1.84.06-.34.19-.67.4-.99.2-.32.45-.61.74-.86Z"/>
  <path class="cls-2" d="m317.78,489.43l4.94-4.14-3.02,17.11c-.17.94.46,1.7,1.4,1.7h1.88c.94,0,1.84-.76,2.01-1.7l4.03-22.87c.17-.94-.46-1.7-1.4-1.7h-2.31c-.82,0-1.66.32-2.34.9l-8.2,6.97-5.71-6.97c-.48-.58-1.2-.91-2.02-.91h-2.3c-.94,0-1.84.76-2.01,1.7l-4.03,22.87c-.17.94.46,1.7,1.4,1.7h1.77c.94,0,1.84-.76,2.01-1.7l3.02-17.11,5.58,6.66c.55.65,1.61.65,2.39,0l3.02-2.52h-.11Z"/>
  <path class="cls-2" d="m351.07,500.23h11.87l.66,2.93c.13.57.61.94,1.22.94h2.47c1.05,0,1.96-1.06,1.75-2.04l-5.07-23.3c-.12-.57-.61-.95-1.22-.95h-3.68c-.61,0-1.23.38-1.56.95l-13.22,23.3c-.56.98-.02,2.04,1.03,2.04h2.49c.61,0,1.22-.37,1.54-.93l1.72-2.94Zm8.63-15.26l2.12,9.92h-7.78l5.66-9.92Z"/>
  <path class="cls-2" d="m394.68,496.14h11.76l1.89,7.19c.12.47.53.77,1.05.77h2.95c.94,0,1.73-.96,1.5-1.82l-2.05-7.62c.65-.37,1.28-.82,1.88-1.36.6-.54,1.14-1.14,1.62-1.79.48-.65.89-1.34,1.21-2.06.32-.72.55-1.44.68-2.16l.06-.37.06-.37c.19-1.06.16-2.08-.07-3.06-.23-.98-.63-1.87-1.19-2.67-.56-.8-1.28-1.46-2.16-1.97-.88-.52-1.86-.85-2.94-1h-17.06c-.71,0-1.4.58-1.52,1.29l-4.17,23.66c-.13.71.35,1.29,1.07,1.29h2.72c.71,0,1.4-.58,1.52-1.29l1.18-6.67Zm2.33-13.2h11.76c.52,0,.99.11,1.43.33s.81.52,1.12.88c.3.37.52.79.66,1.27.14.48.16.98.07,1.49-.1.57-.3,1.08-.59,1.55-.29.47-.65.88-1.08,1.23-.43.36-.9.63-1.42.83-.51.2-1.04.29-1.58.29h-11.76l1.39-7.89Z"/>
  <path class="cls-2" d="m461.63,477.93h-23.42c-.76,0-1.48.62-1.62,1.38l-.42,2.37c-.13.76.37,1.38,1.13,1.38h9.09l-3.47,19.67c-.13.76.37,1.38,1.13,1.38h2.48c.76,0,1.48-.62,1.62-1.38l3.47-19.67h9.09c.76,0,1.48-.62,1.62-1.38l.42-2.37c.13-.76-.37-1.38-1.13-1.38Z"/>
  <path class="cls-2" d="m523.88,500.23h11.87l.66,2.93c.13.57.61.94,1.22.94h2.47c1.05,0,1.96-1.06,1.75-2.04l-5.07-23.3c-.12-.57-.61-.95-1.22-.95h-3.68c-.61,0-1.23.38-1.56.95l-13.22,23.3c-.56.98-.02,2.04,1.03,2.04h2.49c.61,0,1.22-.37,1.54-.93l1.72-2.94Zm8.63-15.26l2.12,9.92h-7.78l5.66-9.92Z"/>
  <path class="cls-2" d="m773.32,500.23h11.87l.66,2.93c.13.57.61.94,1.22.94h2.47c1.05,0,1.96-1.06,1.75-2.04l-5.07-23.3c-.12-.57-.61-.95-1.22-.95h-3.68c-.61,0-1.23.38-1.56.95l-13.22,23.3c-.56.98-.02,2.04,1.03,2.04h2.49c.61,0,1.22-.37,1.54-.93l1.72-2.94Zm8.63-15.26l2.12,9.92h-7.78l5.66-9.92Z"/>
  <path class="cls-2" d="m702.73,496.14h11.76l1.89,7.19c.12.47.53.77,1.05.77h2.95c.94,0,1.73-.96,1.5-1.82l-2.05-7.62c.65-.37,1.28-.82,1.88-1.36.6-.54,1.14-1.14,1.62-1.79.48-.65.89-1.34,1.21-2.06.32-.72.55-1.44.68-2.16l.06-.37.06-.37c.19-1.06.16-2.08-.07-3.06-.23-.98-.63-1.87-1.19-2.67-.56-.8-1.28-1.46-2.16-1.97-.88-.52-1.86-.85-2.94-1h-17.06c-.71,0-1.4.58-1.52,1.29l-4.17,23.66c-.13.71.35,1.29,1.07,1.29h2.72c.71,0,1.4-.58,1.52-1.29l1.18-6.67Zm2.33-13.2h11.76c.52,0,.99.11,1.43.33s.81.52,1.12.88c.3.37.52.79.66,1.27.14.48.16.98.07,1.49-.1.57-.3,1.08-.59,1.55-.29.47-.65.88-1.08,1.23-.43.36-.9.63-1.42.83-.51.2-1.04.29-1.58.29h-11.76l1.39-7.89Z"/>
  <path class="cls-2" d="m630.71,498.5c.69-1.11,1.14-2.29,1.36-3.54l.94-5.31h-12.18c-.54,0-1.06.44-1.16.98l-.59,3.34c-.1.54.27.98.81.98h6.98c-.1.54-.29,1.04-.58,1.51-.29.47-.65.88-1.08,1.24-.43.36-.9.63-1.42.83-.51.2-1.04.29-1.58.29h-7.82c-.55,0-1.1-.08-1.58-.29-.45-.2-.83-.47-1.14-.83-.31-.36-.52-.77-.65-1.24-.13-.47-.14-.97-.05-1.51l1.4-7.96c.1-.54.29-1.05.58-1.53.29-.48.66-.9,1.09-1.27.43-.37.91-.66,1.42-.87.52-.21,1.03-.31,1.55-.31h7.96c.54,0,1.03.1,1.47.31.44.21.82.5,1.12.87.3.37.52.79.64,1.27.06.24.1.49.1.74.01.46.35.79.82.79h3.27c.6,0,1.14-.53,1.17-1.13.04-.82-.04-1.62-.24-2.39-.29-1.12-.79-2.09-1.47-2.93-.69-.84-1.55-1.5-2.58-1.99-1.03-.49-2.16-.74-3.39-.74h-7.96c-1.25,0-2.48.25-3.67.74-1.19.49-2.28,1.16-3.26,1.99s-1.81,1.81-2.49,2.93c-.68,1.12-1.12,2.29-1.34,3.52l-1.4,7.96c-.22,1.25-.19,2.43.1,3.54.28,1.11.77,2.08,1.46,2.91.69.84,1.54,1.49,2.56,1.97,1.02.48,2.16.72,3.41.72h7.96c1.23,0,2.44-.24,3.65-.72,1.2-.48,2.29-1.14,3.28-1.97s1.82-1.81,2.5-2.91Z"/>
  <path class="cls-2" d="m675.48,498.83h-19.54l.94-5.31h9.44c.83,0,1.63-.68,1.78-1.51l.4-2.25c.15-.83-.41-1.51-1.24-1.51h-9.44l.92-5.2h19.54c.83,0,1.63-.68,1.78-1.51l.38-2.14c.15-.83-.41-1.51-1.24-1.51h-22.43c-1.25,0-2.45,1.02-2.67,2.27l-.51,2.89-3.31,18.78c-.22,1.25.62,2.27,1.87,2.27h22.43c.83,0,1.63-.68,1.78-1.51l.4-2.25c.15-.83-.41-1.51-1.24-1.51Z"/>
  <path class="cls-2" d="m742.78,504.1h3.2c.55,0,1.08-.45,1.18-1l4.28-24.25c.1-.55-.27-1-.82-1h-3.2c-.55,0-1.08.45-1.18,1l-4.28,24.25c-.1.55.27,1,.82,1Z"/>
  <path class="cls-2" d="m586.56,498.8h-19.67l3.45-19.56c.13-.76-.37-1.37-1.13-1.37h-2.45c-.76,0-1.48.61-1.62,1.37l-4.14,23.5c-.13.76.37,1.37,1.13,1.37h23.5c.76,0,1.48-.61,1.62-1.37l.45-2.56c.13-.76-.37-1.37-1.13-1.37Z"/>
  <path class="cls-2" d="m502.59,478.9h-4.25c-1.06,0-2.06.86-2.25,1.91l-.75,4.25s0,.02,0,.03c0,0-.02,0-.03,0h-12.33c-1.06,0-2.06.86-2.25,1.91l-2.17,12.33c-.19,1.06.52,1.91,1.58,1.91h12.33c1.06,0,2.06-.86,2.25-1.91l2.17-12.33s0-.02,0-.03c0,0,.02,0,.03,0h4.25c1.06,0,2.06-.86,2.25-1.91l.75-4.25c.19-1.06-.52-1.91-1.58-1.91Z"/>
  <path class="cls-3" d="m783.15,603H238.63c-3.72,0-6.21-3.02-5.55-6.74l13.49-76.52c.66-3.72,4.21-6.74,7.93-6.74h544.52c3.72,0,6.21,3.02,5.55,6.74l-13.49,76.52c-.66,3.72-4.21,6.74-7.93,6.74Z"/>
  <g>
    <path class="cls-1" d="m327.54,576.31h23.25l1.29,5.74c.25,1.11,1.2,1.84,2.39,1.84h4.85c2.06,0,3.84-2.08,3.43-4l-9.94-45.64c-.24-1.12-1.19-1.85-2.39-1.85h-7.21c-1.2,0-2.42.74-3.05,1.86l-25.91,45.64c-1.09,1.92-.04,3.99,2.02,3.99h4.87c1.19,0,2.38-.72,3.03-1.82l3.38-5.77Zm16.9-29.9l4.16,19.43h-15.24l11.08-19.43Z"/>
    <path class="cls-1" d="m503.47,576.31h23.25l1.29,5.74c.25,1.11,1.2,1.84,2.39,1.84h4.85c2.06,0,3.84-2.08,3.43-4l-9.94-45.64c-.24-1.12-1.19-1.85-2.39-1.85h-7.21c-1.2,0-2.42.74-3.05,1.86l-25.91,45.64c-1.09,1.92-.04,3.99,2.02,3.99h4.87c1.19,0,2.38-.72,3.03-1.82l3.38-5.77Zm16.9-29.9l4.16,19.43h-15.24l11.08-19.43Z"/>
    <path class="cls-1" d="m601.42,532.61h-45.89c-1.49,0-2.91,1.21-3.17,2.69l-.82,4.65c-.26,1.49.73,2.69,2.22,2.69h17.82l-6.8,38.54c-.26,1.49.73,2.69,2.22,2.69h4.87c1.49,0,2.91-1.21,3.17-2.69l6.8-38.54h17.82c1.49,0,2.91-1.21,3.17-2.69l.82-4.65c.26-1.49-.73-2.69-2.22-2.69Z"/>
    <path class="cls-1" d="m299.89,552.91h-30.77l3.28-18.6c.17-.97-.48-1.76-1.45-1.76h-6.88c-.97,0-1.9.79-2.07,1.76l-8.43,47.83c-.17.97.48,1.76,1.45,1.76h6.88c.97,0,1.9-.79,2.07-1.76l3.33-18.89h30.77l-3.33,18.89c-.17.97.48,1.76,1.45,1.76h6.73c.97,0,1.9-.79,2.07-1.76l8.43-47.83c.17-.97-.48-1.76-1.45-1.76h-6.73c-.97,0-1.9.79-2.07,1.76l-3.28,18.6Z"/>
    <path class="cls-1" d="m648.85,552.91h-30.77l3.28-18.6c.17-.97-.48-1.76-1.45-1.76h-6.88c-.97,0-1.9.79-2.07,1.76l-8.43,47.83c-.17.97.48,1.76,1.45,1.76h6.88c.97,0,1.9-.79,2.07-1.76l3.33-18.89h30.77l-3.33,18.89c-.17.97.48,1.76,1.45,1.76h6.73c.97,0,1.9-.79,2.07-1.76l8.43-47.83c.17-.97-.48-1.76-1.45-1.76h-6.73c-.97,0-1.9.79-2.07,1.76l-3.28,18.6Z"/>
    <path class="cls-1" d="m387.69,547.06c.58-.96,1.28-1.79,2.1-2.49.82-.7,1.74-1.24,2.74-1.62,1.01-.38,2.06-.58,3.17-.58h15.67c1.01,0,1.94.21,2.78.61s1.55.96,2.13,1.66c.57.7.99,1.51,1.23,2.42.1.37.16.74.2,1.12.08,1.02.82,1.76,1.87,1.76h6.11c1.36,0,2.63-1.21,2.66-2.56.04-1.48-.13-2.92-.5-4.3-.58-2.17-1.55-4.06-2.9-5.67-1.35-1.61-3.04-2.9-5.06-3.86-2.02-.96-4.26-1.45-6.71-1.45h-15.67c-2.55,0-5.02.47-7.4,1.41-2.38.94-4.55,2.23-6.49,3.86-1.95,1.64-3.59,3.55-4.91,5.74-1.33,2.19-2.21,4.54-2.65,7.04l-2.76,15.67c-.44,2.5-.39,4.85.17,7.04.55,2.19,1.51,4.11,2.89,5.74,1.37,1.64,3.08,2.92,5.13,3.86,2.05.94,4.35,1.41,6.9,1.41h15.67c2.46,0,4.86-.48,7.22-1.44,2.36-.96,4.5-2.25,6.42-3.86,1.92-1.61,3.55-3.5,4.9-5.67.87-1.4,1.55-2.86,2.04-4.38.43-1.35-.4-2.55-1.76-2.55h-6.11c-1.05,0-2.06.75-2.49,1.77-.17.4-.37.78-.61,1.15-.57.89-1.25,1.67-2.04,2.35-.79.67-1.68,1.2-2.69,1.58-1.08.42-2.21.58-3.3.58h-15.41c-2.22,0-3.95-.7-5.19-2.09-1.25-1.4-1.67-3.23-1.27-5.49l2.76-15.67c.2-1.11.58-2.14,1.16-3.1Z"/>
    <path class="cls-1" d="m488.8,532.61h-16.04c-.76,0-1.55.22-2.26.62l-22.73,12.88,1.96-11.13c.23-1.31-.65-2.38-1.96-2.38h-5.57c-1.31,0-2.57,1.06-2.8,2.38l-8.2,46.52c-.23,1.31.65,2.38,1.96,2.38h5.57c1.31,0,2.57-1.06,2.8-2.38l4.1-23.26,5.39-3.11,17.34,27.85c.35.56.98.89,1.7.89h10.7c.55,0,.97-.64.7-1.07l-20.75-33.09,28.23-15.9c.62-.35.53-1.22-.13-1.22Z"/>
    <path class="cls-1" d="m717.19,537.85c-1.33-1.61-3.01-2.89-5.03-3.83-2.03-.94-4.27-1.41-6.72-1.41h-15.45c-2.46,0-4.86.47-7.22,1.41-2.36.94-4.48,2.22-6.38,3.83s-3.51,3.51-4.83,5.71c-1.33,2.19-2.2,4.51-2.64,6.97l-2.73,15.45c-.43,2.46-.37,4.78.18,6.97.55,2.19,1.49,4.09,2.82,5.71,1.33,1.61,3,2.89,5.03,3.83,2.02.94,4.27,1.41,6.72,1.41h15.45c2.46,0,4.86-.47,7.22-1.41,2.36-.94,4.48-2.21,6.38-3.83,1.9-1.61,3.51-3.51,4.83-5.71,1.32-2.19,2.2-4.51,2.64-6.97l2.73-15.45c.43-2.46.37-4.78-.18-6.97-.55-2.19-1.49-4.09-2.82-5.71Zm-10.05,28.13c-.38,2.17-1.42,3.97-3.12,5.42-1.7,1.44-3.63,2.17-5.8,2.17h-15.45c-1.06,0-2.02-.19-2.89-.58-.87-.38-1.61-.93-2.2-1.62-.6-.7-1.02-1.5-1.27-2.42-.25-.91-.28-1.9-.09-2.96l2.73-15.45c.2-1.11.59-2.11,1.18-3,.59-.89,1.31-1.7,2.16-2.42s1.76-1.3,2.73-1.73c.97-.43,2-.65,3.11-.65h15.45c1.06,0,2.01.21,2.85.61.84.41,1.55.97,2.12,1.7.57.72.97,1.55,1.19,2.49.22.94.24,1.94.05,3l-2.73,15.45Z"/>
    <path class="cls-1" d="m770.85,550.31l-26.2-16.75c-1.04-.66-2.28-1.01-3.61-1.01h-6c-1.27,0-2.48,1.03-2.7,2.29l-8.24,46.76c-.22,1.27.62,2.29,1.89,2.29h5.74c1.27,0,2.48-1.03,2.7-2.29l6.57-37.28,27.78,17.77-3.44,19.52c-.22,1.27.62,2.29,1.89,2.29h5.74c1.27,0,2.48-1.03,2.7-2.29l8.24-46.76c.22-1.27-.62-2.29-1.89-2.29h-5.74c-1.27,0-2.48,1.03-2.7,2.29l-2.73,15.47Z"/>
  </g>
  <path class="cls-3" d="m801.92,522h31.52c3.72,0,7.27-3.02,7.93-6.74l5.56-31.52c.66-3.72-1.83-6.74-5.55-6.74h-31.52c-3.72,0-7.27,3.02-7.93,6.74l-5.56,31.52c-.66,3.72,1.83,6.74,5.55,6.74Z"/>
</svg>